<svg width="16" height="16" viewBox="0 0 16 16" fill="none" xmlns="http://www.w3.org/2000/svg">
<g clip-path="url(#clip0_185_517)">
<path d="M8.39034 1.72465C8.14035 1.47459 7.80127 1.33406 7.44767 1.33398H2.66634C2.31272 1.33398 1.97358 1.47446 1.72353 1.72451C1.47348 1.97456 1.33301 2.3137 1.33301 2.66732V7.44865C1.33308 7.80224 1.47361 8.14133 1.72367 8.39132L7.52634 14.194C7.82935 14.4951 8.23917 14.6641 8.66634 14.6641C9.09351 14.6641 9.50333 14.4951 9.80634 14.194L14.193 9.80732C14.4941 9.50431 14.6631 9.09449 14.6631 8.66732C14.6631 8.24015 14.4941 7.83033 14.193 7.52732L8.39034 1.72465Z" stroke="#FFE8A1" stroke-width="1.33333" stroke-linecap="round" stroke-linejoin="round"/>
<path d="M5.00033 5.33268C5.18442 5.33268 5.33366 5.18344 5.33366 4.99935C5.33366 4.81525 5.18442 4.66602 5.00033 4.66602C4.81623 4.66602 4.66699 4.81525 4.66699 4.99935C4.66699 5.18344 4.81623 5.33268 5.00033 5.33268Z" fill="#FFE8A1" stroke="#FFE8A1" stroke-width="1.33333" stroke-linecap="round" stroke-linejoin="round"/>
</g>
<defs>
<clipPath id="clip0_185_517">
<rect width="16" height="16" fill="white"/>
</clipPath>
</defs>
</svg>
