<svg width="17" height="17" viewBox="0 0 17 17" fill="none" xmlns="http://www.w3.org/2000/svg">
<g clip-path="url(#clip0_32_2426)">
<path d="M7.00146 14.7344C7.11849 14.9371 7.28681 15.1054 7.48949 15.2224C7.69218 15.3394 7.92209 15.401 8.15613 15.401C8.39017 15.401 8.62008 15.3394 8.82277 15.2224C9.02545 15.1054 9.19377 14.9371 9.3108 14.7344" stroke="#FFE8A1" stroke-width="1.33333" stroke-linecap="round" stroke-linejoin="round"/>
<path d="M2.33092 10.9524C2.24383 11.0478 2.18635 11.1665 2.16549 11.294C2.14462 11.4216 2.16126 11.5524 2.21339 11.6706C2.26551 11.7889 2.35087 11.8894 2.45909 11.96C2.5673 12.0306 2.6937 12.0683 2.82292 12.0684H13.4896C13.6188 12.0684 13.7452 12.0309 13.8535 11.9604C13.9618 11.89 14.0472 11.7895 14.0995 11.6714C14.1518 11.5532 14.1686 11.4224 14.1479 11.2949C14.1272 11.1674 14.0699 11.0486 13.9829 10.953C13.0963 10.039 12.1563 9.06769 12.1563 6.06836C12.1563 5.00749 11.7348 3.99008 10.9847 3.23993C10.2345 2.48979 9.21712 2.06836 8.15625 2.06836C7.09539 2.06836 6.07797 2.48979 5.32782 3.23993C4.57768 3.99008 4.15625 5.00749 4.15625 6.06836C4.15625 9.06769 3.21558 10.039 2.33092 10.9524Z" stroke="#FFE8A1" stroke-width="1.33333" stroke-linecap="round" stroke-linejoin="round"/>
</g>
<defs>
<clipPath id="clip0_32_2426">
<rect width="16" height="16" fill="white" transform="translate(0.15625 0.734375)"/>
</clipPath>
</defs>
</svg>
