<svg width="481" height="94" viewBox="0 0 481 94" fill="none" xmlns="http://www.w3.org/2000/svg">
<path d="M25.5226 57.0351H42.0372V68.9757C42.0372 85.8703 34.9309 94 20.9185 94C9.90877 94 0 88.2838 0 67.5784V26.4216C0 5.71621 9.90877 0 20.9185 0C33.0292 0 42.0372 4.57297 42.0372 24.1351V34.0432H25.4225V21.5946C25.4225 17.9108 24.5217 14.4811 20.9185 14.4811C17.5155 14.4811 16.6147 17.9108 16.6147 21.5946V72.4054C16.6147 76.0892 17.5155 79.5189 20.9185 79.5189C24.5217 79.5189 25.4225 76.0892 25.4225 72.4054L25.5226 57.0351Z" fill="#FFE8A1"/>
<path d="M63.8432 56.273H69.8485L66.946 16.0054H66.7458L63.8432 56.273ZM57.4376 1.77838H80.2578L89.4659 92.2216H72.9513L71.0496 69.9919H62.0416L59.3392 92.2216H45.3268L57.4376 1.77838Z" fill="#FFE8A1"/>
<path d="M134.893 34.1703H118.278V21.4676C118.278 17.0216 117.177 14.4811 113.874 14.4811C110.271 14.4811 109.47 17.0216 109.47 21.4676C109.47 36.7108 134.893 41.1568 134.893 69.1027C134.893 86.1243 127.686 94 113.774 94C103.165 94 92.8556 89.427 92.8556 73.8027V57.0351H109.47V72.6595C109.47 77.9946 110.771 79.5189 113.874 79.5189C116.577 79.5189 118.278 77.9946 118.278 72.6595C118.278 52.2081 92.8556 51.827 92.8556 22.6108C92.8556 6.22432 101.363 0 114.175 0C125.384 0 134.893 4.82703 134.893 19.9432V34.1703Z" fill="#FFE8A1"/>
<path d="M173.514 92.2216H139.083V1.77838H173.514V15.4973H155.698V35.3135H172.913V49.0324H155.698V78.5027H173.514V92.2216Z" fill="#FFE8A1"/>
<path d="M241.628 34.1703H225.013V21.4676C225.013 17.0216 223.912 14.4811 220.609 14.4811C217.006 14.4811 216.205 17.0216 216.205 21.4676C216.205 36.7108 241.628 41.1568 241.628 69.1027C241.628 86.1243 234.422 94 220.509 94C209.9 94 199.591 89.427 199.591 73.8027V57.0351H216.205V72.6595C216.205 77.9946 217.507 79.5189 220.609 79.5189C223.312 79.5189 225.013 77.9946 225.013 72.6595C225.013 52.2081 199.591 51.827 199.591 22.6108C199.591 6.22432 208.098 0 220.91 0C232.12 0 241.628 4.82703 241.628 19.9432V34.1703Z" fill="#FFE8A1"/>
<path d="M256.828 15.4973H245.218V1.77838H285.053V15.4973H273.443V92.2216H256.828V15.4973Z" fill="#FFE8A1"/>
<path d="M330.672 1.77838V66.4351C330.271 85.6162 325.067 94 309.553 94C289.035 94 288.634 75.8351 288.634 64.4027V1.77838H305.249V66.9432C305.249 74.1838 305.249 79.5189 309.553 79.5189C314.057 79.5189 314.057 74.1838 314.057 66.9432V1.77838H330.672Z" fill="#FFE8A1"/>
<path d="M335.062 92.2216V1.77838H352.177C370.794 1.77838 377.099 5.58919 377.099 32.6459V64.9108C377.099 82.0595 373.096 92.2216 352.177 92.2216H335.062ZM351.677 14.7351V79.2649C359.784 79.2649 360.485 75.327 360.485 66.6892V29.4703C360.485 17.4027 360.084 14.7351 351.677 14.7351Z" fill="#FFE8A1"/>
<path d="M397.804 92.2216H381.19V1.77838H397.804V92.2216Z" fill="#FFE8A1"/>
<path d="M436.149 92.2216H401.718V1.77838H436.149V15.4973H418.333V35.3135H435.548V49.0324H418.333V78.5027H436.149V92.2216Z" fill="#FFE8A1"/>
<path d="M481 34.1703H464.385V21.4676C464.385 17.0216 463.284 14.4811 459.981 14.4811C456.378 14.4811 455.577 17.0216 455.577 21.4676C455.577 36.7108 481 41.1568 481 69.1027C481 86.1243 473.794 94 459.881 94C449.272 94 438.963 89.427 438.963 73.8027V57.0351H455.577V72.6595C455.577 77.9946 456.879 79.5189 459.981 79.5189C462.684 79.5189 464.385 77.9946 464.385 72.6595C464.385 52.2081 438.963 51.827 438.963 22.6108C438.963 6.22432 447.47 0 460.282 0C471.492 0 481 4.82703 481 19.9432V34.1703Z" fill="#FFE8A1"/>
</svg>
