<svg width="433" height="94" viewBox="0 0 433 94" fill="none" xmlns="http://www.w3.org/2000/svg">
<path d="M25.474 57.0351H41.9572V68.9757C41.9572 85.8703 34.8644 94 20.8787 94C9.88991 94 0 88.2838 0 67.5784V26.4216C0 5.71621 9.88991 0 20.8787 0C32.9664 0 41.9572 4.57297 41.9572 24.1351V34.0432H25.3741V21.5946C25.3741 17.9108 24.475 14.4811 20.8787 14.4811C17.4822 14.4811 16.5831 17.9108 16.5831 21.5946V72.4054C16.5831 76.0892 17.4822 79.5189 20.8787 79.5189C24.475 79.5189 25.3741 76.0892 25.3741 72.4054L25.474 57.0351Z" fill="#FFE8A1"/>
<path d="M63.4838 21.5946V72.4054C63.4838 76.0892 64.3829 79.5189 67.8793 79.5189C71.3758 79.5189 72.2748 76.0892 72.2748 72.4054V21.5946C72.2748 17.9108 71.3758 14.4811 67.8793 14.4811C64.3829 14.4811 63.4838 17.9108 63.4838 21.5946ZM88.8579 26.4216V67.5784C88.8579 88.2838 78.8681 94 67.8793 94C56.8905 94 46.9007 88.2838 46.9007 67.5784V26.4216C46.9007 5.71621 56.8905 0 67.8793 0C78.8681 0 88.8579 5.71621 88.8579 26.4216Z" fill="#FFE8A1"/>
<path d="M106.988 14.9892V92.2216H93.7016V1.77838H118.077L125.07 66.0541H125.269L132.262 1.77838H156.138V92.2216H141.153V14.9892H140.953L131.363 92.2216H116.778L107.188 14.9892H106.988Z" fill="#FFE8A1"/>
<path d="M174.181 14.9892V92.2216H160.894V1.77838H185.269L192.262 66.0541H192.462L199.455 1.77838H223.33V92.2216H208.346V14.9892H208.146L198.556 92.2216H183.971L174.38 14.9892H174.181Z" fill="#FFE8A1"/>
<path d="M270.144 1.77838V66.4351C269.744 85.6162 264.549 94 249.065 94C228.586 94 228.187 75.8351 228.187 64.4027V1.77838H244.77V66.9432C244.77 74.1838 244.77 79.5189 249.065 79.5189C253.561 79.5189 253.561 74.1838 253.561 66.9432V1.77838H270.144Z" fill="#FFE8A1"/>
<path d="M274.488 92.2216V1.77838H297.464L308.054 67.5784H308.253V1.77838H321.24V92.2216H299.962L287.674 16.6405H287.475V92.2216H274.488Z" fill="#FFE8A1"/>
<path d="M341.881 92.2216H325.298V1.77838H341.881V92.2216Z" fill="#FFE8A1"/>
<path d="M357.337 15.4973H345.749V1.77838H385.508V15.4973H373.92V92.2216H357.337V15.4973Z" fill="#FFE8A1"/>
<path d="M402.331 92.2216V58.9405L388.246 1.77838H404.429L410.523 37.727H410.723L416.817 1.77838H433L418.914 58.9405V92.2216H402.331Z" fill="#FFE8A1"/>
</svg>
