<svg width="18" height="18" viewBox="0 0 18 18" fill="none" xmlns="http://www.w3.org/2000/svg">
<g clip-path="url(#clip0_5_1465)">
<path d="M2.244 12.2563C2.35428 12.5345 2.37883 12.8393 2.3145 13.1315L1.51575 15.599C1.49001 15.7242 1.49666 15.8538 1.53508 15.9756C1.57349 16.0975 1.64239 16.2075 1.73525 16.2952C1.8281 16.383 1.94183 16.4455 2.06565 16.477C2.18946 16.5085 2.31927 16.5078 2.44275 16.475L5.0025 15.7265C5.27828 15.6718 5.56389 15.6957 5.82675 15.7955C7.42829 16.5434 9.24252 16.7017 10.9494 16.2423C12.6562 15.7829 14.1459 14.7355 15.1558 13.2848C16.1656 11.8341 16.6306 10.0733 16.4687 8.31318C16.3069 6.55304 15.5285 4.90662 14.271 3.66442C13.0136 2.42221 11.3578 1.66405 9.59578 1.52369C7.83379 1.38334 6.07885 1.86981 4.64058 2.89727C3.20231 3.92474 2.17315 5.42718 1.73467 7.1395C1.29619 8.85182 1.47657 10.664 2.244 12.2563Z" stroke="#FFE8A1" stroke-width="1.5" stroke-linecap="round" stroke-linejoin="round"/>
</g>
<defs>
<clipPath id="clip0_5_1465">
<rect width="18" height="18" fill="white"/>
</clipPath>
</defs>
</svg>
