<svg width="447" height="80" viewBox="0 0 447 80" fill="none" xmlns="http://www.w3.org/2000/svg">
<path d="M25.49 48.5405H41.9835V58.7027C41.9835 73.0811 34.8863 80 20.8918 80C9.89611 80 0 75.1351 0 57.5135V22.4865C0 4.86486 9.89611 0 20.8918 0C32.987 0 41.9835 3.89189 41.9835 20.5405V28.973H25.39V18.3784C25.39 15.2432 24.4904 12.3243 20.8918 12.3243C17.4931 12.3243 16.5935 15.2432 16.5935 18.3784V61.6216C16.5935 64.7568 17.4931 67.6757 20.8918 67.6757C24.4904 67.6757 25.39 64.7568 25.39 61.6216L25.49 48.5405Z" fill="#FFE8A1"/>
<path d="M62.962 18.3784V61.6216C62.962 64.7568 63.8616 67.6757 67.3602 67.6757C70.8589 67.6757 71.7585 64.7568 71.7585 61.6216V18.3784C71.7585 15.2432 70.8589 12.3243 67.3602 12.3243C63.8616 12.3243 62.962 15.2432 62.962 18.3784ZM88.352 22.4865V57.5135C88.352 75.1351 78.3559 80 67.3602 80C56.3646 80 46.3685 75.1351 46.3685 57.5135V22.4865C46.3685 4.86486 56.3646 0 67.3602 0C78.3559 0 88.352 4.86486 88.352 22.4865Z" fill="#FFE8A1"/>
<path d="M109.131 78.4865H92.537V1.51351H109.23C125.024 1.51351 134.421 3.24324 134.421 19.4595C134.421 29.0811 130.722 35.3513 121.726 36.973V37.1892C129.722 37.4054 134.421 40.6486 134.421 51.6757V67.7838C134.421 70.8108 134.92 75.3513 136.92 78.4865H120.226C118.227 75.3513 117.827 70.8108 117.827 67.7838V51.4595C117.827 46.0541 114.828 43.3513 111.829 43.3513H109.131V78.4865ZM109.131 12.5405V32.3243C116.628 32.3243 117.827 29.6216 117.827 22.3784C117.827 15.2432 116.728 12.5405 109.131 12.5405Z" fill="#FFE8A1"/>
<path d="M173.292 78.4865H138.906V1.51351H173.292V13.1892H155.499V30.0541H172.692V41.7297H155.499V66.8108H173.292V78.4865Z" fill="#FFE8A1"/>
<path d="M208.932 78.4865L197.936 1.51351H215.729L219.728 60.8649H219.928L227.125 1.51351H242.619L230.723 78.4865H208.932Z" fill="#FFE8A1"/>
<path d="M255.678 47.8919H261.676L258.777 13.6216H258.577L255.678 47.8919ZM249.281 1.51351H272.072L281.268 78.4865H264.775L262.876 59.5676H253.879L251.18 78.4865H237.186L249.281 1.51351Z" fill="#FFE8A1"/>
<path d="M319.04 78.4865H284.454V1.51351H301.047V66.8108H319.04V78.4865Z" fill="#FFE8A1"/>
<path d="M363.634 1.51351V56.5405C363.234 72.8649 358.037 80 342.543 80C322.051 80 321.651 64.5405 321.651 54.8108V1.51351H338.244V56.973C338.244 63.1351 338.244 67.6757 342.543 67.6757C347.041 67.6757 347.041 63.1351 347.041 56.973V1.51351H363.634Z" fill="#FFE8A1"/>
<path d="M402.206 78.4865H367.819V1.51351H402.206V13.1892H384.413V30.0541H401.606V41.7297H384.413V66.8108H402.206V78.4865Z" fill="#FFE8A1"/>
<path d="M447 29.0811H430.407V18.2703C430.407 14.4865 429.307 12.3243 426.008 12.3243C422.41 12.3243 421.61 14.4865 421.61 18.2703C421.61 31.2432 447 35.027 447 58.8108C447 73.2973 439.803 80 425.908 80C415.312 80 405.017 76.1081 405.017 62.8108V48.5405H421.61V61.8378C421.61 66.3784 422.909 67.6757 426.008 67.6757C428.707 67.6757 430.407 66.3784 430.407 61.8378C430.407 44.4324 405.017 44.1081 405.017 19.2432C405.017 5.29729 413.513 0 426.308 0C437.504 0 447 4.10811 447 16.973V29.0811Z" fill="#FFE8A1"/>
</svg>
