<svg width="16" height="16" viewBox="0 0 16 16" fill="none" xmlns="http://www.w3.org/2000/svg">
<g clip-path="url(#clip0_30_835)">
<path d="M14.6668 11.3333C14.6668 11.687 14.5264 12.0261 14.2763 12.2761C14.0263 12.5262 13.6871 12.6667 13.3335 12.6667H4.55216C4.19857 12.6667 3.85949 12.8073 3.6095 13.0573L2.1415 14.5253C2.0753 14.5915 1.99097 14.6366 1.89916 14.6548C1.80735 14.6731 1.71218 14.6637 1.6257 14.6279C1.53922 14.5921 1.4653 14.5314 1.41329 14.4536C1.36128 14.3758 1.33351 14.2843 1.3335 14.1907V3.33333C1.3335 2.97971 1.47397 2.64057 1.72402 2.39052C1.97407 2.14048 2.31321 2 2.66683 2H13.3335C13.6871 2 14.0263 2.14048 14.2763 2.39052C14.5264 2.64057 14.6668 2.97971 14.6668 3.33333V11.3333Z" stroke="#FFE8A1" stroke-width="1.33333" stroke-linecap="round" stroke-linejoin="round"/>
</g>
<defs>
<clipPath id="clip0_30_835">
<rect width="16" height="16" fill="white"/>
</clipPath>
</defs>
</svg>
