<svg width="17" height="17" viewBox="0 0 17 17" fill="none" xmlns="http://www.w3.org/2000/svg">
<g clip-path="url(#clip0_32_2385)">
<path d="M11.8335 10.0684V2.06836" stroke="#FFE8A1" stroke-width="1.33333" stroke-linecap="round" stroke-linejoin="round"/>
<path d="M6.50011 12.815L7.16678 10.0684H3.28011C3.07312 10.0684 2.86897 10.0202 2.68383 9.9276C2.49869 9.83503 2.33764 9.70062 2.21344 9.53503C2.08925 9.36943 2.00531 9.17719 1.96828 8.97354C1.93126 8.76989 1.94215 8.56041 2.00011 8.36169L3.55344 3.02836C3.63422 2.75141 3.80265 2.50812 4.03344 2.33503C4.26424 2.16193 4.54495 2.06836 4.83344 2.06836H13.8334C14.1871 2.06836 14.5262 2.20884 14.7763 2.45888C15.0263 2.70893 15.1668 3.04807 15.1668 3.40169V8.73503C15.1668 9.08865 15.0263 9.42779 14.7763 9.67784C14.5262 9.92788 14.1871 10.0684 13.8334 10.0684H11.9934C11.7454 10.0685 11.5023 10.1378 11.2915 10.2685C11.0807 10.3993 10.9105 10.5862 10.8001 10.8084L8.50011 15.4017C8.18573 15.3978 7.87629 15.3229 7.59491 15.1826C7.31353 15.0423 7.06749 14.8403 6.87517 14.5916C6.68286 14.3428 6.54923 14.0539 6.48429 13.7462C6.41934 13.4386 6.42475 13.1203 6.50011 12.815Z" stroke="#FFE8A1" stroke-width="1.33333" stroke-linecap="round" stroke-linejoin="round"/>
</g>
<defs>
<clipPath id="clip0_32_2385">
<rect width="16" height="16" fill="white" transform="translate(0.5 0.734375)"/>
</clipPath>
</defs>
</svg>
