<svg width="16" height="17" viewBox="0 0 16 17" fill="none" xmlns="http://www.w3.org/2000/svg">
<path d="M1.37468 8.96661C1.31912 8.81694 1.31912 8.65229 1.37468 8.50262C1.91581 7.19052 2.83435 6.06864 4.01386 5.27921C5.19336 4.48979 6.58071 4.06836 8.00001 4.06836C9.41932 4.06836 10.8067 4.48979 11.9862 5.27921C13.1657 6.06864 14.0842 7.19052 14.6253 8.50262C14.6809 8.65229 14.6809 8.81694 14.6253 8.96661C14.0842 10.2787 13.1657 11.4006 11.9862 12.19C10.8067 12.9794 9.41932 13.4009 8.00001 13.4009C6.58071 13.4009 5.19336 12.9794 4.01386 12.19C2.83435 11.4006 1.91581 10.2787 1.37468 8.96661Z" stroke="#FFE8A1" stroke-opacity="0.7" stroke-width="1.33333" stroke-linecap="round" stroke-linejoin="round"/>
<path d="M8 10.7344C9.10457 10.7344 10 9.83894 10 8.73438C10 7.62981 9.10457 6.73438 8 6.73438C6.89543 6.73438 6 7.62981 6 8.73438C6 9.83894 6.89543 10.7344 8 10.7344Z" stroke="#FFE8A1" stroke-opacity="0.7" stroke-width="1.33333" stroke-linecap="round" stroke-linejoin="round"/>
</svg>
