<svg width="311" height="80" viewBox="0 0 311 80" fill="none" xmlns="http://www.w3.org/2000/svg">
<path d="M16.6024 78.4865H0V1.51351H34.405V13.1892H16.6024V30.0541H33.8049V41.7297H16.6024V78.4865Z" fill="#FFE8A1"/>
<path d="M54.3815 18.3784V61.6216C54.3815 64.7568 55.2816 67.6757 58.7821 67.6757C62.2826 67.6757 63.1828 64.7568 63.1828 61.6216V18.3784C63.1828 15.2432 62.2826 12.3243 58.7821 12.3243C55.2816 12.3243 54.3815 15.2432 54.3815 18.3784ZM79.7852 22.4865V57.5135C79.7852 75.1351 69.7837 80 58.7821 80C47.7805 80 37.7791 75.1351 37.7791 57.5135V22.4865C37.7791 4.86486 47.7805 0 58.7821 0C69.7837 0 79.7852 4.86486 79.7852 22.4865Z" fill="#FFE8A1"/>
<path d="M126.741 1.51351V56.5405C126.341 72.8649 121.14 80 105.638 80C85.1346 80 84.7345 64.5405 84.7345 54.8108V1.51351H101.337V56.973C101.337 63.1351 101.337 67.6757 105.638 67.6757C110.138 67.6757 110.138 63.1351 110.138 56.973V1.51351H126.741Z" fill="#FFE8A1"/>
<path d="M131.09 78.4865V1.51351H154.093L164.695 57.5135H164.895V1.51351H177.897V78.4865H156.594L144.292 14.1622H144.092V78.4865H131.09Z" fill="#FFE8A1"/>
<path d="M182.259 78.4865V1.51351H199.362C217.964 1.51351 224.265 4.75675 224.265 27.7838V55.2432C224.265 69.8378 220.265 78.4865 199.362 78.4865H182.259ZM198.862 12.5405V67.4595C206.963 67.4595 207.663 64.1081 207.663 56.7568V25.0811C207.663 14.8108 207.263 12.5405 198.862 12.5405Z" fill="#FFE8A1"/>
<path d="M263.42 78.4865H229.015V1.51351H263.42V13.1892H245.617V30.0541H262.819V41.7297H245.617V66.8108H263.42V78.4865Z" fill="#FFE8A1"/>
<path d="M283.196 78.4865H266.594V1.51351H283.296C299.098 1.51351 308.5 3.24324 308.5 19.4595C308.5 29.0811 304.799 35.3513 295.798 36.973V37.1892C303.799 37.4054 308.5 40.6486 308.5 51.6757V67.7838C308.5 70.8108 309 75.3513 311 78.4865H294.298C292.297 75.3513 291.897 70.8108 291.897 67.7838V51.4595C291.897 46.0541 288.897 43.3513 285.896 43.3513H283.196V78.4865ZM283.196 12.5405V32.3243C290.697 32.3243 291.897 29.6216 291.897 22.3784C291.897 15.2432 290.797 12.5405 283.196 12.5405Z" fill="#FFE8A1"/>
</svg>
