<svg width="99" height="19" viewBox="0 0 99 19" fill="none" xmlns="http://www.w3.org/2000/svg">
<path d="M92.6113 15.7965V6.23438H98.55V7.77756H94.2861V10.237H98.1055V11.7149H94.2861V14.2524H98.55V15.7956H92.6113V15.7965Z" fill="white"/>
<path d="M80.1865 15.7965V6.23438H83.8362C86.0081 6.23438 87.2764 7.333 87.2764 9.21641C87.2764 10.4983 86.6749 11.4137 85.55 11.8718L87.368 15.7965H85.5364L83.9142 12.2257H81.8603V15.7965H80.1855H80.1865ZM81.8612 10.7469H83.8362C84.8959 10.7469 85.5237 10.1844 85.5237 9.21641C85.5237 8.24839 84.8959 7.72494 83.8362 7.72494H81.8612V10.7469Z" fill="white"/>
<path d="M68.6654 14.8032C70.3274 11.677 69.3277 8.24404 68.6708 7.10547C68.6708 7.10547 66.4708 10.836 68.6654 14.8032Z" fill="white"/>
<path d="M76.6995 0.000913355C76.6995 0.000913355 70.0414 0.570636 64.8947 4.97705C58.6557 10.6136 62.6593 19 62.6593 19C62.6593 19 63.4985 18.2606 65.0172 18.3341C68.5898 18.5083 73.477 17.4695 75.1881 14.2053C77.1677 10.483 76.8528 5.54133 77.272 4.26031C77.6313 2.74706 77.8372 2.15829 78.5947 0.816504C79.0383 0.0299651 76.6995 0 76.6995 0V0.000913355ZM68.1272 16.3935C65.1297 16.0316 62.9387 13.5666 63.3243 10.3687C63.7089 7.18522 66.4524 5.19116 69.4499 5.55313C72.4474 5.9151 74.4596 8.4145 74.1774 11.5553C73.7928 14.7388 71.1391 16.7573 68.1272 16.3935Z" fill="white"/>
<path d="M54.0497 14.2533H58.0524V15.7965H52.375V6.23438H54.0497V14.2533Z" fill="white"/>
<path d="M39.6873 11.0859C39.6873 13.2178 40.9166 14.3818 42.683 14.3818C44.3441 14.3818 45.3511 13.4664 45.3511 11.9359V11.8969H42.4598V10.419H46.907V15.7953H45.4944L45.3901 14.6966C44.8666 15.4288 43.7807 15.9395 42.4861 15.9395C39.8043 15.9395 37.9336 13.9908 37.9336 11.0468C37.9336 8.10291 39.8306 6.07617 42.7084 6.07617C44.8929 6.07617 46.5804 7.34538 46.8552 9.29406H45.0889C44.7877 8.16913 43.8197 7.64567 42.6693 7.64567C40.7723 7.64567 39.6873 9.01918 39.6873 11.0859Z" fill="white"/>
<path d="M24.9062 15.7965V6.23438H26.5674L31.0545 13.0104V6.23438H32.7029V15.7965H31.0545L26.5547 9.02042V15.7965H24.9062Z" fill="white"/>
<path d="M11.6152 6.23438H13.29V12.1994C13.29 13.5729 14.0357 14.3313 15.3956 14.3313C16.7556 14.3313 17.5149 13.5593 17.5149 12.1994V6.23438H19.1896V12.3037C19.1896 14.5409 17.7245 15.9535 15.3965 15.9535C13.0686 15.9535 11.6161 14.5536 11.6161 12.3037V6.23438H11.6152Z" fill="white"/>
<path d="M0 12.5395H1.60944V13.102C1.60944 13.8342 2.01497 14.4103 2.95667 14.4103C3.89838 14.4103 4.29119 13.8741 4.29119 13.0367V6.23438H5.96593V13.1283C5.96593 14.8158 4.78833 15.9671 2.97027 15.9671C1.00796 15.9671 0.000913355 14.7505 0.000913355 13.102V12.5395H0Z" fill="white"/>
</svg>
