<svg width="16" height="17" viewBox="0 0 16 17" fill="none" xmlns="http://www.w3.org/2000/svg">
<g clip-path="url(#clip0_32_2379)">
<path d="M4.6665 7.40039V15.4004" stroke="#FFE8A1" stroke-width="1.33333" stroke-linecap="round" stroke-linejoin="round"/>
<path d="M10.0002 4.65503L9.3335 7.40169H13.2202C13.4272 7.40169 13.6313 7.44989 13.8164 7.54246C14.0016 7.63503 14.1626 7.76943 14.2868 7.93503C14.411 8.10062 14.495 8.29286 14.532 8.49651C14.569 8.70017 14.5581 8.90965 14.5002 9.10836L12.9468 14.4417C12.8661 14.7186 12.6976 14.9619 12.4668 15.135C12.236 15.3081 11.9553 15.4017 11.6668 15.4017H2.66683C2.31321 15.4017 1.97407 15.2612 1.72402 15.0112C1.47397 14.7611 1.3335 14.422 1.3335 14.0684V8.73503C1.3335 8.3814 1.47397 8.04227 1.72402 7.79222C1.97407 7.54217 2.31321 7.40169 2.66683 7.40169H4.50683C4.75489 7.40156 4.99799 7.33223 5.2088 7.20151C5.41961 7.07078 5.58978 6.88383 5.70016 6.66169L8.00016 2.06836C8.31455 2.07225 8.62399 2.14714 8.90537 2.28742C9.18674 2.42771 9.43278 2.62976 9.6251 2.87849C9.81742 3.12723 9.95104 3.4162 10.016 3.72383C10.0809 4.03146 10.0755 4.34978 10.0002 4.65503Z" stroke="#FFE8A1" stroke-width="1.33333" stroke-linecap="round" stroke-linejoin="round"/>
</g>
<defs>
<clipPath id="clip0_32_2379">
<rect width="16" height="16" fill="white" transform="translate(0 0.734375)"/>
</clipPath>
</defs>
</svg>
