<svg width="55" height="54" viewBox="0 0 55 54" fill="none" xmlns="http://www.w3.org/2000/svg">
<path d="M27.5 32L33.75 25.75M27.5 28.25L20 20.75M27.5 52V19.5M13.8063 14.5C14.4375 7.49125 20.3275 2 27.5 2C34.6725 2 40.5625 7.49125 41.1938 14.5H41.25C44.2337 14.5 47.0952 15.6853 49.205 17.795C51.3147 19.9048 52.5 22.7663 52.5 25.75C52.5 28.7337 51.3147 31.5952 49.205 33.705C47.0952 35.8147 44.2337 37 41.25 37H13.75C10.7663 37 7.90483 35.8147 5.79505 33.705C3.68526 31.5952 2.5 28.7337 2.5 25.75C2.5 22.7663 3.68526 19.9048 5.79505 17.795C7.90483 15.6853 10.7663 14.5 13.75 14.5H13.8063Z" stroke="#1E2D27" stroke-width="4" stroke-linecap="round" stroke-linejoin="round"/>
</svg>
