<svg width="17" height="17" viewBox="0 0 17 17" fill="none" xmlns="http://www.w3.org/2000/svg">
<g clip-path="url(#clip0_127_87)">
<path d="M7.10742 14.377C7.22445 14.5796 7.39277 14.7479 7.59545 14.8649C7.79814 14.982 8.02805 15.0436 8.26209 15.0436C8.49613 15.0436 8.72604 14.982 8.92873 14.8649C9.13141 14.7479 9.29973 14.5796 9.41676 14.377" stroke="#FFE8A1" stroke-width="1.33333" stroke-linecap="round" stroke-linejoin="round"/>
<path d="M11.5953 11.7102H2.92862C2.79943 11.7102 2.673 11.6727 2.56471 11.6022C2.45643 11.5318 2.37096 11.4313 2.3187 11.3132C2.26644 11.195 2.24963 11.0642 2.27033 10.9367C2.29103 10.8092 2.34834 10.6904 2.43529 10.5948C3.32196 9.68083 4.26196 8.70949 4.26196 5.71016C4.26186 5.3167 4.31982 4.92537 4.43396 4.54883" stroke="#FFE8A1" stroke-width="1.33333" stroke-linecap="round" stroke-linejoin="round"/>
<path d="M1.59473 1.71094L14.9281 15.0443" stroke="#FFE8A1" stroke-width="1.33333" stroke-linecap="round" stroke-linejoin="round"/>
<path d="M6.04004 2.38443C6.64236 1.98222 7.34259 1.75109 8.06599 1.71571C8.7894 1.68034 9.50884 1.84204 10.1475 2.18356C10.7862 2.52508 11.3202 3.03361 11.6925 3.65487C12.0648 4.27614 12.2614 4.98682 12.2614 5.71109C12.2614 7.50243 12.7747 8.81309 13.3994 9.74443" stroke="#FFE8A1" stroke-width="1.33333" stroke-linecap="round" stroke-linejoin="round"/>
</g>
<defs>
<clipPath id="clip0_127_87">
<rect width="16" height="16" fill="white" transform="translate(0.261719 0.376953)"/>
</clipPath>
</defs>
</svg>
