<svg width="484" height="91" viewBox="0 0 484 91" fill="none" xmlns="http://www.w3.org/2000/svg">
<path d="M16.6007 20.9054V70.0946C16.6007 73.6608 17.5007 76.9811 21.0009 76.9811C24.501 76.9811 25.4011 73.6608 25.4011 70.0946V20.9054C25.4011 17.3392 24.501 14.0189 21.0009 14.0189C17.5007 14.0189 16.6007 17.3392 16.6007 20.9054ZM42.0018 25.5784V65.4216C42.0018 85.4662 32.0014 91 21.0009 91C10.0004 91 0 85.4662 0 65.4216V25.5784C0 5.53378 10.0004 0 21.0009 0C32.0014 0 42.0018 5.53378 42.0018 25.5784Z" fill="#FFE8A1"/>
<path d="M88.9524 1.72162V64.3149C88.5523 82.8838 83.3521 91 67.8515 91C47.3506 91 46.9506 73.4149 46.9506 62.3473V1.72162H63.5513V64.8068C63.5513 71.8162 63.5513 76.9811 67.8515 76.9811C72.3517 76.9811 72.3517 71.8162 72.3517 64.8068V1.72162H88.9524Z" fill="#FFE8A1"/>
<path d="M110.302 89.2784H93.7011V1.72162H110.402C126.203 1.72162 135.603 3.68918 135.603 22.1351C135.603 33.0797 131.903 40.2122 122.902 42.0568V42.3027C130.903 42.5486 135.603 46.2378 135.603 58.7811V77.1041C135.603 80.5473 136.103 85.7122 138.103 89.2784H121.402C119.402 85.7122 119.002 80.5473 119.002 77.1041V58.5351C119.002 52.3865 116.002 49.3122 113.002 49.3122H110.302V89.2784ZM110.302 14.2649V36.7689C117.802 36.7689 119.002 33.6946 119.002 25.4554C119.002 17.3392 117.902 14.2649 110.302 14.2649Z" fill="#FFE8A1"/>
<path d="M189.358 1.72162H205.959V67.0203C205.959 79.0716 202.758 91 184.958 91C178.457 91 164.157 88.4176 164.157 69.6027V55.4608H180.757V68.127C180.757 71.9392 180.657 76.9811 185.058 76.9811C189.458 76.9811 189.358 71.9392 189.358 68.127V1.72162Z" fill="#FFE8A1"/>
<path d="M228.208 20.9054V70.0946C228.208 73.6608 229.108 76.9811 232.608 76.9811C236.108 76.9811 237.008 73.6608 237.008 70.0946V20.9054C237.008 17.3392 236.108 14.0189 232.608 14.0189C229.108 14.0189 228.208 17.3392 228.208 20.9054ZM253.609 25.5784V65.4216C253.609 85.4662 243.609 91 232.608 91C221.608 91 211.607 85.4662 211.607 65.4216V25.5784C211.607 5.53378 221.608 0 232.608 0C243.609 0 253.609 5.53378 253.609 25.5784Z" fill="#FFE8A1"/>
<path d="M300.56 1.72162V64.3149C300.16 82.8838 294.959 91 279.459 91C258.958 91 258.558 73.4149 258.558 62.3473V1.72162H275.159V64.8068C275.159 71.8162 275.159 76.9811 279.459 76.9811C283.959 76.9811 283.959 71.8162 283.959 64.8068V1.72162H300.56Z" fill="#FFE8A1"/>
<path d="M321.909 89.2784H305.308V1.72162H322.009C337.81 1.72162 347.21 3.68918 347.21 22.1351C347.21 33.0797 343.51 40.2122 334.51 42.0568V42.3027C342.51 42.5486 347.21 46.2378 347.21 58.7811V77.1041C347.21 80.5473 347.71 85.7122 349.71 89.2784H333.01C331.01 85.7122 330.61 80.5473 330.61 77.1041V58.5351C330.61 52.3865 327.609 49.3122 324.609 49.3122H321.909V89.2784ZM321.909 14.2649V36.7689C329.409 36.7689 330.61 33.6946 330.61 25.4554C330.61 17.3392 329.509 14.2649 321.909 14.2649Z" fill="#FFE8A1"/>
<path d="M351.859 89.2784V1.72162H374.86L385.46 65.4216H385.66V1.72162H398.661V89.2784H377.36L365.06 16.1095H364.86V89.2784H351.859Z" fill="#FFE8A1"/>
<path d="M437.224 89.2784H402.823V1.72162H437.224V15.0027H419.424V34.1865H436.624V47.4676H419.424V75.9973H437.224V89.2784Z" fill="#FFE8A1"/>
<path d="M453.299 89.2784V57.0595L439.198 1.72162H455.399L461.499 36.523H461.699L467.799 1.72162H484L469.899 57.0595V89.2784H453.299Z" fill="#FFE8A1"/>
</svg>
