<svg width="366" height="94" viewBox="0 0 366 94" fill="none" xmlns="http://www.w3.org/2000/svg">
<path d="M16.5624 14.7351V44.3324H19.1565C24.9433 44.3324 25.3424 40.2676 25.3424 29.5973C25.3424 18.927 24.9433 14.7351 19.1565 14.7351H16.5624ZM16.5624 92.2216H0V1.77838H20.254C33.4241 1.77838 41.9048 5.58918 41.9048 21.2135V37.727C41.9048 51.3189 32.4263 57.2892 22.6486 57.2892H16.5624V92.2216Z" fill="#FFE8A1"/>
<path d="M63.4045 21.5946V72.4054C63.4045 76.0892 64.3025 79.5189 67.7946 79.5189C71.2866 79.5189 72.1846 76.0892 72.1846 72.4054V21.5946C72.1846 17.9108 71.2866 14.4811 67.7946 14.4811C64.3025 14.4811 63.4045 17.9108 63.4045 21.5946ZM88.747 26.4216V67.5784C88.747 88.2838 78.7696 94 67.7946 94C56.8195 94 46.8422 88.2838 46.8422 67.5784V26.4216C46.8422 5.71621 56.8195 0 67.7946 0C78.7696 0 88.747 5.71621 88.747 26.4216Z" fill="#FFE8A1"/>
<path d="M93.6843 92.2216V1.77838H110.746C129.303 1.77838 135.589 5.58919 135.589 32.6459V64.9108C135.589 82.0595 131.598 92.2216 110.746 92.2216H93.6843ZM110.247 14.7351V79.2649C118.328 79.2649 119.027 75.327 119.027 66.6892V29.4703C119.027 17.4027 118.628 14.7351 110.247 14.7351Z" fill="#FFE8A1"/>
<path d="M165.969 57.0351H182.431V68.9757C182.431 85.8703 175.347 94 161.379 94C150.404 94 140.526 88.2838 140.526 67.5784V26.4216C140.526 5.71621 150.404 0 161.379 0C173.452 0 182.431 4.57297 182.431 24.1351V34.0432H165.869V21.5946C165.869 17.9108 164.971 14.4811 161.379 14.4811C157.987 14.4811 157.089 17.9108 157.089 21.5946V72.4054C157.089 76.0892 157.987 79.5189 161.379 79.5189C164.971 79.5189 165.869 76.0892 165.869 72.4054L165.969 57.0351Z" fill="#FFE8A1"/>
<path d="M204.729 56.273H210.716L207.822 16.0054H207.623L204.729 56.273ZM198.344 1.77838H221.092L230.271 92.2216H213.809L211.913 69.9919H202.933L200.239 92.2216H186.271L198.344 1.77838Z" fill="#FFE8A1"/>
<path d="M276.116 34.1703H259.553V21.4676C259.553 17.0216 258.456 14.4811 255.163 14.4811C251.571 14.4811 250.773 17.0216 250.773 21.4676C250.773 36.7108 276.116 41.1568 276.116 69.1027C276.116 86.1243 268.932 94 255.063 94C244.487 94 234.211 89.427 234.211 73.8027V57.0351H250.773V72.6595C250.773 77.9946 252.07 79.5189 255.163 79.5189C257.857 79.5189 259.553 77.9946 259.553 72.6595C259.553 52.2081 234.211 51.827 234.211 22.6108C234.211 6.22432 242.692 0 255.463 0C266.637 0 276.116 4.82703 276.116 19.9432V34.1703Z" fill="#FFE8A1"/>
<path d="M291.828 15.4973H280.255V1.77838H319.965V15.4973H308.391V92.2216H291.828V15.4973Z" fill="#FFE8A1"/>
<path d="M366 34.1703H349.438V21.4676C349.438 17.0216 348.34 14.4811 345.048 14.4811C341.456 14.4811 340.658 17.0216 340.658 21.4676C340.658 36.7108 366 41.1568 366 69.1027C366 86.1243 358.816 94 344.948 94C334.372 94 324.095 89.427 324.095 73.8027V57.0351H340.658V72.6595C340.658 77.9946 341.955 79.5189 345.048 79.5189C347.741 79.5189 349.438 77.9946 349.438 72.6595C349.438 52.2081 324.095 51.827 324.095 22.6108C324.095 6.22432 332.576 0 345.347 0C356.522 0 366 4.82703 366 19.9432V34.1703Z" fill="#FFE8A1"/>
</svg>
