<svg width="50" height="50" viewBox="0 0 50 50" fill="none" xmlns="http://www.w3.org/2000/svg">
<path d="M34.283 44.5833C31.383 45.9623 28.2109 46.6742 24.9998 46.6666C13.0532 46.6666 3.33334 36.9466 3.33334 25C3.33334 19.875 5.09499 15.035 8.33329 11.1533V15H11.6666V5H1.66669V8.33333H6.40331C2.27098 12.8995 -0.0119083 18.8415 4.67174e-05 25C4.67174e-05 38.785 11.2149 50 24.9998 50C28.7068 50.0077 32.3685 49.1853 35.7163 47.5933L34.283 44.5833Z" fill="#1E2D27"/>
<path d="M33.3331 13.333C28.0665 13.333 23.7482 17.428 23.3698 22.5997C21.5376 20.9278 19.147 20.0005 16.6666 19.9997H10V26.6663C10 32.1813 14.4866 36.6663 19.9999 36.6663H23.3332V43.333H26.6665V29.9997H29.9998C35.513 29.9997 39.9997 25.5147 39.9997 19.9997V13.333H33.3331ZM19.9999 33.333C16.3233 33.333 13.3333 30.343 13.3333 26.6663V23.333H16.6666C20.3432 23.333 23.3332 26.323 23.3332 29.9997V30.9763L19.5116 27.1547L17.1549 29.5113L20.9765 33.333H19.9999ZM36.6664 19.9997C36.6664 23.6763 33.6764 26.6663 29.9998 26.6663H29.0231L32.8447 22.8447L30.4881 20.488L26.6665 24.3097V23.333C26.6665 19.6563 29.6564 16.6663 33.3331 16.6663H36.6664V19.9997Z" fill="#1E2D27"/>
<path d="M49.9995 25C49.9995 11.215 38.7846 5.38279e-05 24.9997 5.38279e-05C21.2927 -0.0076641 17.631 0.814669 14.2832 2.40672L15.7165 5.41671C18.6165 4.03771 21.7886 3.32584 24.9997 3.33338C36.9463 3.33338 46.6662 13.0534 46.6662 25C46.6662 30.125 44.9045 34.965 41.6662 38.8467V35H38.3329V45H48.3328V41.6667H43.5962C47.7285 37.1005 50.0114 31.1585 49.9995 25Z" fill="#1E2D27"/>
</svg>
