<svg width="17" height="17" viewBox="0 0 17 17" fill="none" xmlns="http://www.w3.org/2000/svg">
<g clip-path="url(#clip0_32_2407)">
<path d="M2.854 15.4017V3.40169C2.854 3.2982 2.8781 3.19612 2.92439 3.10355C2.97067 3.01098 3.03787 2.93046 3.12067 2.86836C3.81306 2.34907 4.65519 2.06836 5.52067 2.06836C7.52067 2.06836 8.854 3.40169 10.4093 3.40169C11.2982 3.40169 11.9798 3.22392 12.454 2.86836C12.5531 2.79407 12.6708 2.74884 12.7941 2.73772C12.9174 2.7266 13.0414 2.75004 13.1521 2.80541C13.2629 2.86078 13.356 2.94589 13.4211 3.05121C13.4862 3.15652 13.5207 3.27788 13.5207 3.40169V10.0684C13.5207 10.1719 13.4966 10.2739 13.4503 10.3665C13.404 10.4591 13.3368 10.5396 13.254 10.6017C12.5616 11.121 11.7195 11.4017 10.854 11.4017C8.854 11.4017 7.52067 10.0684 5.52067 10.0684C4.53675 10.0684 3.58735 10.4311 2.854 11.087" stroke="#FFE8A1" stroke-opacity="0.6" stroke-width="1.33333" stroke-linecap="round" stroke-linejoin="round"/>
</g>
<defs>
<clipPath id="clip0_32_2407">
<rect width="16" height="16" fill="white" transform="translate(0.1875 0.734375)"/>
</clipPath>
</defs>
</svg>
