<svg width="1123" height="475" viewBox="0 0 1123 475" fill="none" xmlns="http://www.w3.org/2000/svg">
<path d="M885.33 0C953.949 0 1015.77 29.1002 1059.13 75.6328C1030.38 81.6172 1012.22 104.548 1012.22 152.657C1012.22 254.292 1088.41 255.618 1088.41 326.762C1088.41 345.321 1083.31 350.624 1075.21 350.624C1065.91 350.624 1062.01 345.321 1062.01 326.762V272.409H1012.22V330.739C1012.22 375.889 1033.54 394.508 1058.98 399.52C1015.63 445.963 953.873 475 885.33 475H193.33C113.617 475 43.077 435.728 0 375.478V251.198H8.09863C17.0977 251.198 26.0967 262.246 26.0967 284.341V351.066C26.0967 363.439 27.2966 381.999 33.2959 394.813H83.3906C77.3914 381.999 75.8916 363.439 75.8916 351.066V285.225C75.8916 240.152 61.7933 226.895 37.7959 226.011V225.127C64.7928 218.499 75.8915 192.869 75.8916 153.541C75.8916 94.4889 53.5118 82.4342 15.1152 80.5068C58.636 31.1413 122.346 0 193.33 0H885.33ZM265.99 74C227.595 74.0001 202.098 95.6534 202.098 152.657C202.098 254.292 278.289 255.618 278.289 326.762C278.289 345.321 273.19 350.624 265.091 350.624C255.792 350.624 251.893 345.321 251.893 326.762V272.409H202.098V330.739C202.098 385.092 232.994 401 264.791 401C306.486 401 328.084 373.603 328.084 314.39C328.084 217.173 251.893 201.707 251.893 148.68C251.893 133.214 254.292 124.376 265.091 124.376C274.99 124.376 278.289 133.214 278.289 148.68V192.869H328.084V143.377C328.084 90.7919 299.587 74 265.99 74ZM404.798 74C371.801 74 341.805 93.8851 341.805 165.913V309.087C341.805 381.115 371.801 401 404.798 401C437.794 401 467.791 381.115 467.791 309.087V165.913C467.791 93.885 437.794 74 404.798 74ZM481.512 80.1865V298.039C481.512 337.809 482.712 401 544.205 401C590.7 401 606.298 371.835 607.498 305.109V80.1865H557.704V306.877C557.704 332.065 557.704 350.624 544.205 350.624C531.306 350.624 531.307 332.065 531.307 306.877V80.1865H481.512ZM823.619 74C790.623 74.0001 760.926 93.8853 760.926 165.913V309.087C760.926 381.115 790.623 401 823.619 401C865.615 401 886.913 372.719 886.913 313.947V272.409H837.418L837.118 325.878C837.118 338.693 834.418 350.624 823.619 350.624C813.42 350.624 810.721 338.693 810.721 325.878V149.122C810.721 136.307 813.42 124.376 823.619 124.376C834.418 124.376 837.118 136.307 837.118 149.122V192.427H886.913V157.959C886.913 89.908 859.915 74 823.619 74ZM89.9121 80.1865V394.813H193.102V347.089H139.707V244.57H191.302V196.846H139.707V127.911H193.102V80.1865H89.9121ZM620.619 80.1865V394.813H670.414V251.198H678.513C687.512 251.198 696.511 262.246 696.511 284.341V351.066C696.511 363.439 697.711 381.999 703.71 394.813H753.805C747.805 381.999 746.306 363.439 746.306 351.066V285.225C746.306 240.152 732.207 226.895 708.21 226.011V225.127C735.207 218.498 746.306 192.869 746.306 153.541C746.306 87.2573 718.109 80.1865 670.714 80.1865H620.619ZM900.033 80.1865V394.813H1003.22V347.089H949.828V244.57H1001.42V196.846H949.828V127.911H1003.22V80.1865H900.033ZM404.798 124.376C415.297 124.376 417.996 136.307 417.996 149.122V325.878C417.996 338.693 415.297 350.624 404.798 350.624C394.299 350.624 391.6 338.693 391.6 325.878V149.122C391.6 136.307 394.299 124.376 404.798 124.376ZM1075.21 124.376C1085.11 124.376 1088.41 133.214 1088.41 148.68V192.869H1118.64C1121.39 207.325 1122.83 222.244 1122.83 237.5C1122.83 240.814 1122.76 244.112 1122.63 247.394C1100.34 205.005 1062.01 186.289 1062.01 148.68C1062.01 133.214 1064.41 124.376 1075.21 124.376ZM0 125.26C22.7974 125.26 26.0967 136.307 26.0967 165.472C26.0967 195.078 22.4974 206.126 0 206.126V125.26ZM670.414 125.26C693.211 125.26 696.511 136.307 696.511 165.472C696.511 195.078 692.911 206.126 670.414 206.126V125.26Z" fill="#FFE8A1"/>
</svg>
