<svg width="16" height="16" viewBox="0 0 16 16" fill="none" xmlns="http://www.w3.org/2000/svg">
<path d="M10.667 8.66652L14.149 10.9879C14.1992 11.0213 14.2575 11.0404 14.3177 11.0433C14.378 11.0462 14.4378 11.0327 14.491 11.0042C14.5441 10.9758 14.5886 10.9334 14.6196 10.8817C14.6506 10.83 14.667 10.7708 14.667 10.7105V5.24652C14.667 5.18787 14.6516 5.13025 14.6222 5.07948C14.5928 5.02872 14.5506 4.9866 14.4997 4.95738C14.4488 4.92817 14.3912 4.91289 14.3325 4.91309C14.2739 4.91329 14.2163 4.92896 14.1657 4.95852L10.667 6.99985" stroke="#FFE8A1" stroke-width="1.33333" stroke-linecap="round" stroke-linejoin="round"/>
<path d="M9.33301 4H2.66634C1.92996 4 1.33301 4.59695 1.33301 5.33333V10.6667C1.33301 11.403 1.92996 12 2.66634 12H9.33301C10.0694 12 10.6663 11.403 10.6663 10.6667V5.33333C10.6663 4.59695 10.0694 4 9.33301 4Z" stroke="#FFE8A1" stroke-width="1.33333" stroke-linecap="round" stroke-linejoin="round"/>
</svg>
