<svg width="60" height="9" viewBox="0 0 60 9" fill="none" xmlns="http://www.w3.org/2000/svg">
<path d="M3.44149 9L0.381494 0.599999H2.10949L4.43749 7.344L6.77749 0.599999H8.49349L5.43349 9H3.44149ZM10.064 9V0.599999H11.684V9H10.064ZM13.8954 9V0.599999H19.4154V1.908H15.5154V4.104H19.0554V5.364H15.5154V7.692H19.4154V9H13.8954ZM23.1453 9L20.9373 0.599999H22.6653L24.1293 7.164L25.8573 0.599999H27.6453L29.3253 7.164L30.8013 0.599999H32.5413L30.2733 9H28.3413L26.7333 2.88L25.0653 9H23.1453ZM37.0482 9L40.1202 0.599999H41.9562L45.0162 9H43.3002L41.0322 2.448L38.7522 9H37.0482ZM38.4042 7.092L38.8362 5.832H43.1082L43.5282 7.092H38.4042ZM46.6818 9V0.599999H48.3018V7.74H51.9858V9H46.6818ZM53.9351 9V0.599999H55.5551V7.74H59.2391V9H53.9351Z" fill="#FFE8A1"/>
</svg>
