<svg width="180" height="95" viewBox="0 0 180 95" fill="none" xmlns="http://www.w3.org/2000/svg">
<path d="M13.4926 92.3294V59.0094L0 1.78046H15.5022L21.3394 37.7711H21.5308L27.368 1.78046H42.8702L29.3776 59.0094V92.3294H13.4926Z" fill="#FFE8A1" fill-opacity="0.9"/>
<path d="M62.61 21.6198V72.49C62.61 76.1781 63.4713 79.6118 66.8205 79.6118C70.1697 79.6118 71.031 76.1781 71.031 72.49V21.6198C71.031 17.9317 70.1697 14.498 66.8205 14.498C63.4713 14.498 62.61 17.9317 62.61 21.6198ZM86.9159 26.4525V67.6573C86.9159 88.3869 77.3467 94.1098 66.8205 94.1098C56.2943 94.1098 46.7251 88.3869 46.7251 67.6573V26.4525C46.7251 5.72289 56.2943 0 66.8205 0C77.3467 0 86.9159 5.72289 86.9159 26.4525Z" fill="#FFE8A1" fill-opacity="0.9"/>
<path d="M132.301 1.78046V66.5128C131.919 85.7162 126.943 94.1098 112.11 94.1098C92.4932 94.1098 92.1105 75.9237 92.1105 64.4779V1.78046H107.995V67.0215C107.995 74.2705 107.995 79.6118 112.11 79.6118C116.416 79.6118 116.416 74.2705 116.416 67.0215V1.78046H132.301Z" fill="#FFE8A1" fill-opacity="0.9"/>
<path d="M153.189 92.3294H137.304V1.78046H153.285C168.405 1.78046 177.4 3.81526 177.4 22.8916C177.4 34.2102 173.859 41.5864 165.247 43.494V43.7483C172.902 44.0027 177.4 47.818 177.4 60.7899V79.739C177.4 83.2999 177.878 88.6413 179.792 92.3294H163.811C161.897 88.6413 161.515 83.2999 161.515 79.739V60.5355C161.515 54.1767 158.644 50.9973 155.773 50.9973H153.189V92.3294ZM153.189 14.7523V38.0255C160.366 38.0255 161.515 34.8461 161.515 26.3253C161.515 17.9317 160.462 14.7523 153.189 14.7523Z" fill="#FFE8A1" fill-opacity="0.9"/>
</svg>
